<mxfile host="app.diagrams.net" modified="2020-08-31T03:21:41.136Z" agent="5.0 (Windows NT 10.0; Win64; x64) AppleWebKit/537.36 (KHTML, like Gecko) Chrome/77.0.3865.90 Safari/537.36" etag="lHEyCMF-7Wv91pWW8tlV" version="13.6.5" type="github">
  <diagram id="6I0OCvxSQrVGMHxT2VVA" name="Page-1">
    <mxGraphModel dx="1422" dy="762" grid="1" gridSize="10" guides="1" tooltips="1" connect="1" arrows="1" fold="1" page="1" pageScale="1" pageWidth="850" pageHeight="1100" math="0" shadow="0">
      <root>
        <mxCell id="0" />
        <mxCell id="1" parent="0" />
        <mxCell id="dKdSaXE48SgPbhcamS2K-58" value="Technology" style="text;html=1;strokeColor=none;fillColor=none;align=center;verticalAlign=middle;whiteSpace=wrap;fontSize=14;" parent="1" vertex="1">
          <mxGeometry x="1269" y="751" width="240" height="20" as="geometry" />
        </mxCell>
        <mxCell id="dKdSaXE48SgPbhcamS2K-59" value="Application" style="text;html=1;strokeColor=none;fillColor=none;align=center;verticalAlign=middle;whiteSpace=wrap;fontSize=14;" parent="1" vertex="1">
          <mxGeometry x="1269" y="541" width="240" height="20" as="geometry" />
        </mxCell>
        <mxCell id="dKdSaXE48SgPbhcamS2K-60" value="Business" style="text;html=1;strokeColor=none;fillColor=none;align=center;verticalAlign=middle;whiteSpace=wrap;fontSize=14;" parent="1" vertex="1">
          <mxGeometry x="1259" y="389" width="240" height="20" as="geometry" />
        </mxCell>
        <mxCell id="dKdSaXE48SgPbhcamS2K-63" value="POW+POM" style="text;strokeColor=none;fillColor=none;html=1;fontSize=24;fontStyle=1;verticalAlign=middle;align=center;" parent="1" vertex="1">
          <mxGeometry x="50" y="70" width="1590" height="40" as="geometry" />
        </mxCell>
        <mxCell id="Ssi0FaVRhQvzBARQemNV-24" value="&lt;span style=&quot;box-sizing: border-box ; outline: 0px ; margin: 0px ; padding: 0px ; font-weight: 700 ; overflow-wrap: break-word ; color: rgb(77 , 77 , 77) ; font-family: &amp;#34;microsoft yahei&amp;#34; , &amp;#34;sf pro display&amp;#34; , &amp;#34;roboto&amp;#34; , &amp;#34;noto&amp;#34; , &amp;#34;arial&amp;#34; , &amp;#34;pingfang sc&amp;#34; , sans-serif ; font-size: 18px ; background-color: rgb(255 , 255 , 255)&quot;&gt;&lt;em style=&quot;box-sizing: border-box ; outline: 0px ; margin: 0px ; padding: 0px ; overflow-wrap: break-word&quot;&gt;RAND(h, n)&amp;nbsp; &amp;lt;=&amp;nbsp; M / d&lt;/em&gt;&lt;/span&gt;" style="rounded=1;whiteSpace=wrap;html=1;" vertex="1" parent="1">
          <mxGeometry x="490" y="200" width="320" height="60" as="geometry" />
        </mxCell>
        <mxCell id="Ssi0FaVRhQvzBARQemNV-25" value="&lt;span style=&quot;color: rgb(77, 77, 77); font-family: &amp;quot;microsoft yahei&amp;quot;, &amp;quot;sf pro display&amp;quot;, roboto, noto, arial, &amp;quot;pingfang sc&amp;quot;, sans-serif; font-size: 18px; font-style: normal; font-weight: 400; letter-spacing: normal; text-align: -webkit-left; text-indent: 0px; text-transform: none; word-spacing: 0px; background-color: rgb(255, 255, 255); display: inline; float: none;&quot;&gt;M表示一个极大的数，比如2^256-1；&lt;/span&gt;" style="text;whiteSpace=wrap;html=1;" vertex="1" parent="1">
          <mxGeometry x="30" y="280" width="330" height="30" as="geometry" />
        </mxCell>
        <mxCell id="Ssi0FaVRhQvzBARQemNV-26" value="&lt;span style=&quot;color: rgb(77, 77, 77); font-family: &amp;quot;microsoft yahei&amp;quot;, &amp;quot;sf pro display&amp;quot;, roboto, noto, arial, &amp;quot;pingfang sc&amp;quot;, sans-serif; font-size: 18px; font-style: normal; font-weight: 400; letter-spacing: normal; text-align: -webkit-left; text-indent: 0px; text-transform: none; word-spacing: 0px; background-color: rgb(255, 255, 255); display: inline; float: none;&quot;&gt;d表示Header成员Difficulty&lt;/span&gt;" style="text;whiteSpace=wrap;html=1;" vertex="1" parent="1">
          <mxGeometry x="30" y="310" width="250" height="30" as="geometry" />
        </mxCell>
        <mxCell id="Ssi0FaVRhQvzBARQemNV-27" value="&lt;span style=&quot;color: rgb(77, 77, 77); font-family: &amp;quot;microsoft yahei&amp;quot;, &amp;quot;sf pro display&amp;quot;, roboto, noto, arial, &amp;quot;pingfang sc&amp;quot;, sans-serif; font-size: 18px; font-style: normal; font-weight: 400; letter-spacing: normal; text-align: -webkit-left; text-indent: 0px; text-transform: none; word-spacing: 0px; background-color: rgb(255, 255, 255); display: inline; float: none;&quot;&gt;RAND()是一个概念函数，它代表了一系列复杂的运算，并最终产生一个类似随机的数&lt;/span&gt;" style="text;whiteSpace=wrap;html=1;" vertex="1" parent="1">
          <mxGeometry x="30" y="340" width="750" height="50" as="geometry" />
        </mxCell>
        <mxCell id="Ssi0FaVRhQvzBARQemNV-28" value="&lt;span style=&quot;color: rgb(77, 77, 77); font-family: &amp;quot;microsoft yahei&amp;quot;, &amp;quot;sf pro display&amp;quot;, roboto, noto, arial, &amp;quot;pingfang sc&amp;quot;, sans-serif; font-size: 18px; font-style: normal; font-weight: 400; letter-spacing: normal; text-align: -webkit-left; text-indent: 0px; text-transform: none; word-spacing: 0px; background-color: rgb(255, 255, 255); display: inline; float: none;&quot;&gt;h是Header的哈希值(Header.HashNoNonce())&lt;/span&gt;" style="text;whiteSpace=wrap;html=1;" vertex="1" parent="1">
          <mxGeometry x="30" y="370" width="410" height="30" as="geometry" />
        </mxCell>
        <mxCell id="Ssi0FaVRhQvzBARQemNV-29" value="&lt;span style=&quot;color: rgb(77, 77, 77); font-family: &amp;quot;microsoft yahei&amp;quot;, &amp;quot;sf pro display&amp;quot;, roboto, noto, arial, &amp;quot;pingfang sc&amp;quot;, sans-serif; font-size: 18px; font-style: normal; font-weight: 400; letter-spacing: normal; text-align: -webkit-left; text-indent: 0px; text-transform: none; word-spacing: 0px; background-color: rgb(255, 255, 255); display: inline; float: none;&quot;&gt;n表示Header成员Nonce&lt;/span&gt;" style="text;whiteSpace=wrap;html=1;" vertex="1" parent="1">
          <mxGeometry x="30" y="400" width="230" height="30" as="geometry" />
        </mxCell>
        <mxCell id="Ssi0FaVRhQvzBARQemNV-30" value="&lt;span style=&quot;color: rgb(77 , 77 , 77) ; font-family: &amp;#34;microsoft yahei&amp;#34; , &amp;#34;sf pro display&amp;#34; , &amp;#34;roboto&amp;#34; , &amp;#34;noto&amp;#34; , &amp;#34;arial&amp;#34; , &amp;#34;pingfang sc&amp;#34; , sans-serif ; font-size: 18px ; font-style: normal ; letter-spacing: normal ; text-align: -webkit-left ; text-indent: 0px ; text-transform: none ; word-spacing: 0px ; background-color: rgb(255 , 255 , 255) ; display: inline ; float: none&quot;&gt;&lt;b&gt;在最大不超过M的范围内，以某个方式试图找到一个数，如果这个数符合条件(&amp;lt;=M/d)，那么就认为Seal()成功&lt;/b&gt;&lt;/span&gt;" style="text;whiteSpace=wrap;html=1;" vertex="1" parent="1">
          <mxGeometry x="30" y="430" width="1170" height="70" as="geometry" />
        </mxCell>
        <mxCell id="Ssi0FaVRhQvzBARQemNV-31" value="&lt;span style=&quot;color: rgb(77, 77, 77); font-family: &amp;quot;microsoft yahei&amp;quot;, &amp;quot;sf pro display&amp;quot;, roboto, noto, arial, &amp;quot;pingfang sc&amp;quot;, sans-serif; font-size: 18px; font-style: normal; font-weight: 400; letter-spacing: normal; text-indent: 0px; text-transform: none; word-spacing: 0px; background-color: rgb(255, 255, 255); display: inline; float: none;&quot;&gt;Ethash算法&lt;/span&gt;" style="text;whiteSpace=wrap;html=1;" vertex="1" parent="1">
          <mxGeometry x="40" y="150" width="120" height="30" as="geometry" />
        </mxCell>
      </root>
    </mxGraphModel>
  </diagram>
</mxfile>
